# xmcd
#
# Track frame offsets:
#	150
#	12490
#	25844
#	35304
#	48155
#	68457
#	80998
#	100217
#	110505
#	125645
#	138179
#	151228
#	160823
#	179489
#
# Disc length: 2552 seconds
#
# Revision: 0
# Processed by: cddbd v1.5.2PL0 Copyright (c) Steve Scherf et al.
# Submitted via: dBpowerAMP V4.0
#
DISCID=b109f60e
DTITLE=Stardust Cowboys - The Best Of Country
DYEAR=1900
DGENRE=Country
TTITLE0=I Feel Sorry For Him - Willie Nelson
TTITLE1=Jambalaya - Hank Williams
TTITLE2=Let your Love Flow - The Bellamy Brothers
TTITLE3=Any Ol'arms Won't Go - Willie Nelson
TTITLE4=Banks Of The Ohio - Johnny Cash
TTITLE5=Let It Rain Let Her Cry - Ray Price
TTITLE6=Garden Party - Ricky Nelson
TTITLE7=Peace In The Valley - Johnny Cash
TTITLE8=Right From Wrong - Willie Nelson
TTITLE9=Crazy - Patsy Cline
TTITLE10=Do You Remember These - Statler Brothers
TTITLE11=Six Days On The Road - Dave Dudley
TTITLE12=San Quentin - Johnny Cash
TTITLE13=I'm Sorry - Brenda Lee
EXTD=
EXTT0=
EXTT1=
EXTT2=
EXTT3=
EXTT4=
EXTT5=
EXTT6=
EXTT7=
EXTT8=
EXTT9=
EXTT10=
EXTT11=
EXTT12=
EXTT13=
PLAYORDER=
